<svg xmlns="http://www.w3.org/2000/svg" viewBox="0 0 221.5 34"><g transform="translate(0.00,24) scale(0.02200)"><path d="M572.60009765625 -481.0001220703125Q572.1334228515625 -537.33349609375 559.0001220703125 -574.4668579101562Q545.8668212890625 -611.6002197265625 518.3668212890625 -630.0335693359375Q490.8668212890625 -648.4669189453125 446.3333740234375 -647.4669189453125H381.06640625L380.5997314453125 -142.9996337890625Q380.5997314453125 -115.9996337890625 379.83306884765625 -93.56634521484375Q379.06640625 -71.133056640625 377.06640625 -58.133056640625Q395.93310546875 -59.6663818359375 419.633056640625 -60.39971923828125Q443.3330078125 -61.133056640625 458.4664306640625 -61.5997314453125V0.0H193.06689453125V-50.5997314453125Q223.0670166015625 -52.06640625 237.6336669921875 -62.1998291015625Q252.2003173828125 -72.333251953125 257.43359375 -94.76666259765625Q262.6668701171875 -117.2000732421875 262.6668701171875 -154.4000244140625L263.133544921875 -646.4669189453125L190.5330810546875 -646.000244140625Q130.7330322265625 -645.4669189453125 100.999755859375 -605.6002197265625Q71.2664794921875 -565.7335205078125 71.2664794921875 -481.0001220703125H18.800048828125L24.2667236328125 -700.0H619.533203125L625.533203125 -481.0001220703125Z M757.3333740234375 0.0V-50.5997314453125Q787.33349609375 -52.06640625 802.1334838867188 -61.96649169921875Q816.9334716796875 -71.8665771484375 822.166748046875 -94.29998779296875Q827.4000244140625 -116.7333984375 827.4000244140625 -154.4000244140625V-560.26708984375Q827.4000244140625 -584.0003662109375 828.6666870117188 -605.9669799804688Q829.933349609375 -627.93359375 830.933349609375 -641.866943359375Q814.0 -640.866943359375 792.800048828125 -640.1336059570312Q771.60009765625 -639.4002685546875 757.3333740234375 -638.4002685546875V-700.0H1015.3995361328125V-649.4002685546875Q986.3994140625 -648.4002685546875 971.0994262695312 -638.266845703125Q955.7994384765625 -628.1334228515625 950.566162109375 -606.2000122070312Q945.3328857421875 -584.2666015625 945.3328857421875 -545.5999755859375V-384.9332275390625H1259.06689453125V-560.26708984375Q1259.06689453125 -584.0003662109375 1260.06689453125 -605.9669799804688Q1261.06689453125 -627.93359375 1262.6002197265625 -641.866943359375Q1245.6668701171875 -640.866943359375 1224.4669189453125 -640.1336059570312Q1203.2669677734375 -639.4002685546875 1189.000244140625 -638.4002685546875V-700.0H1447.06640625V-649.4002685546875Q1418.0662841796875 -648.4002685546875 1402.7662963867188 -638.266845703125Q1387.46630859375 -628.1334228515625 1382.2330322265625 -606.2000122070312Q1376.999755859375 -584.2666015625 1376.999755859375 -545.5999755859375V-142.9996337890625Q1376.999755859375 -115.9996337890625 1376.2330932617188 -93.56634521484375Q1375.4664306640625 -71.133056640625 1373.4664306640625 -58.133056640625Q1390.3997802734375 -59.6663818359375 1411.8663940429688 -60.39971923828125Q1433.3330078125 -61.133056640625 1447.06640625 -61.5997314453125V0.0H1189.000244140625V-50.5997314453125Q1219.0003662109375 -52.06640625 1233.8003540039062 -61.96649169921875Q1248.600341796875 -71.8665771484375 1253.8336181640625 -94.29998779296875Q1259.06689453125 -116.7333984375 1259.06689453125 -154.4000244140625V-325.7335205078125L945.3328857421875 -322.266845703125V-142.9996337890625Q945.3328857421875 -115.9996337890625 944.5662231445312 -93.56634521484375Q943.799560546875 -71.133056640625 941.799560546875 -58.133056640625Q958.73291015625 -59.6663818359375 980.1995239257812 -60.39971923828125Q1001.6661376953125 -61.133056640625 1015.3995361328125 -61.5997314453125V0.0Z M1955.0667724609375 -249.400146484375Q1955.0667724609375 -292.33349609375 1942.533447265625 -311.33349609375Q1930.0001220703125 -330.33349609375 1905.8667602539062 -334.60015869140625Q1881.7333984375 -338.8668212890625 1847.2666015625 -337.400146484375L1799.3328857421875 -335.466796875V-141.1329345703125Q1799.3328857421875 -114.1329345703125 1798.5662231445312 -92.46630859375Q1797.799560546875 -70.7996826171875 1795.799560546875 -57.7996826171875L1956.4000244140625 -59.19970703125Q1992.9334716796875 -59.6663818359375 2022.8001708984375 -73.1663818359375Q2052.6668701171875 -86.6663818359375 2070.6668701171875 -119.33306884765625Q2088.6668701171875 -151.999755859375 2088.6668701171875 -208.3331298828125H2139.199951171875L2133.7332763671875 0.0H1611.3333740234375V-50.5997314453125Q1641.33349609375 -52.06640625 1656.1334838867188 -61.96649169921875Q1670.9334716796875 -71.8665771484375 1676.166748046875 -94.29998779296875Q1681.4000244140625 -116.7333984375 1681.4000244140625 -154.4000244140625V-560.26708984375Q1681.4000244140625 -584.0003662109375 1682.6666870117188 -605.9669799804688Q1683.933349609375 -627.93359375 1684.933349609375 -641.866943359375Q1668.0 -640.866943359375 1646.800048828125 -640.1336059570312Q1625.60009765625 -639.4002685546875 1611.3333740234375 -638.4002685546875V-700.0H2102.466552734375L2107.9998779296875 -514.8668212890625H2057.400146484375Q2057.400146484375 -571.7335205078125 2038.8668212890625 -600.9002075195312Q2020.33349609375 -630.06689453125 1991.1668090820312 -640.0335693359375Q1962.0001220703125 -650.000244140625 1929.86669921875 -649.000244140625L1870.532958984375 -647.5335693359375Q1842.066162109375 -647.06689453125 1826.5994873046875 -638.0668334960938Q1811.1328125 -629.0667724609375 1805.2328491210938 -607.300048828125Q1799.3328857421875 -585.5333251953125 1799.3328857421875 -545.5999755859375V-390.9332275390625L1949.466796875 -390.466552734375L1944.0667724609375 -476.9998779296875H2005.66650390625V-249.400146484375Z M2617.3333740234375 0.0V-50.5997314453125Q2647.33349609375 -52.06640625 2662.1334838867188 -61.96649169921875Q2676.9334716796875 -71.8665771484375 2682.166748046875 -94.29998779296875Q2687.4000244140625 -116.7333984375 2687.4000244140625 -154.4000244140625V-560.26708984375Q2687.4000244140625 -584.0003662109375 2688.6666870117188 -605.9669799804688Q2689.933349609375 -627.93359375 2690.933349609375 -641.866943359375Q2674.0 -640.866943359375 2652.800048828125 -640.1336059570312Q2631.60009765625 -639.4002685546875 2617.3333740234375 -638.4002685546875V-700.0H2875.3995361328125V-649.4002685546875Q2846.3994140625 -648.4002685546875 2831.0994262695312 -638.266845703125Q2815.7994384765625 -628.1334228515625 2810.566162109375 -606.2000122070312Q2805.3328857421875 -584.2666015625 2805.3328857421875 -545.5999755859375V-387.9998779296875H2878.73291015625L2978.13330078125 -549.8004150390625Q2993.2666015625 -575.1336669921875 3012.2666015625 -602.3336181640625Q3031.2666015625 -629.5335693359375 3047.5333251953125 -642.866943359375Q3032.0 -641.866943359375 3015.1666870117188 -641.3336181640625Q2998.3333740234375 -640.80029296875 2985.4666748046875 -639.80029296875V-700.0H3216.4664306640625V-649.4002685546875Q3185.1329345703125 -647.4669189453125 3156.1328735351562 -638.6002197265625Q3127.1328125 -629.7335205078125 3098.7327880859375 -605.7001342773438Q3070.332763671875 -581.666748046875 3039.53271484375 -532.0L2942.599365234375 -377.066650390625Q2966.7994384765625 -362.199951171875 2983.4661254882812 -343.966552734375Q3000.1328125 -325.733154296875 3014.932861328125 -305.93310546875L3122.1329345703125 -159.06640625Q3150.5330810546875 -120.799560546875 3173.43310546875 -96.7662353515625Q3196.3331298828125 -72.73291015625 3217.6997680664062 -61.9329833984375Q3239.06640625 -51.133056640625 3260.5997314453125 -50.5997314453125V0.0H3121.5333251953125Q3112.5999755859375 -0.5333251953125 3095.2999877929688 -16.13330078125Q3078.0 -31.7332763671875 3058.4666748046875 -55.03326416015625Q3038.933349609375 -78.333251953125 3022.13330078125 -100.13330078125L2913.3331298828125 -252.533447265625Q2897.5330810546875 -274.33349609375 2880.3997192382812 -295.50018310546875Q2863.266357421875 -316.6668701171875 2847.399658203125 -327.133544921875L2805.3328857421875 -326.6668701171875V-142.9996337890625Q2805.3328857421875 -115.9996337890625 2804.5662231445312 -93.56634521484375Q2803.799560546875 -71.133056640625 2801.799560546875 -58.133056640625Q2818.73291015625 -59.6663818359375 2840.1995239257812 -60.39971923828125Q2861.6661376953125 -61.133056640625 2875.3995361328125 -61.5997314453125V0.0Z M3714.8668212890625 16.0Q3619.8668212890625 16.0 3552.6668090820312 -16.0Q3485.466796875 -48.0 3443.7667846679688 -101.5Q3402.0667724609375 -155.0 3382.60009765625 -220.0Q3363.1334228515625 -285.0 3363.1334228515625 -350.0Q3363.1334228515625 -413.0 3384.4000854492188 -477.5Q3405.666748046875 -542.0 3449.166748046875 -596.0Q3492.666748046875 -650.0 3558.4334106445312 -683.0Q3624.2000732421875 -716.0 3712.7333984375 -716.0Q3804.2000732421875 -716.0 3870.666748046875 -683.0Q3937.1334228515625 -650.0 3979.8334350585938 -595.5Q4022.533447265625 -541.0 4043.5001220703125 -477.0Q4064.466796875 -413.0 4064.466796875 -350.0Q4064.466796875 -288.0 4043.2001342773438 -223.76666259765625Q4021.9334716796875 -159.5333251953125 3978.4334716796875 -105.0333251953125Q3934.9334716796875 -50.5333251953125 3869.400146484375 -17.26666259765625Q3803.8668212890625 16.0 3714.8668212890625 16.0ZM3721.666748046875 -42.06640625Q3778.33349609375 -42.06640625 3818.4669189453125 -68.0330810546875Q3858.600341796875 -93.999755859375 3884.0337524414062 -136.63311767578125Q3909.4671630859375 -179.2664794921875 3921.5005493164062 -230.5665283203125Q3933.533935546875 -281.8665771484375 3933.533935546875 -332.066650390625Q3933.533935546875 -397.7999267578125 3919.2005615234375 -456.6666259765625Q3904.8671875 -515.5333251953125 3876.1337890625 -561.0000610351562Q3847.400390625 -606.466796875 3804.233642578125 -632.7001953125Q3761.06689453125 -658.93359375 3704.400146484375 -658.4002685546875Q3648.2667236328125 -657.866943359375 3607.8999633789062 -631.1336059570312Q3567.533203125 -604.4002685546875 3542.0997924804688 -561.500244140625Q3516.6663818359375 -518.6002197265625 3504.6329956054688 -467.03350830078125Q3492.599609375 -415.466796875 3492.599609375 -364.800048828125Q3492.599609375 -314.066650390625 3505.4329833984375 -257.7999267578125Q3518.266357421875 -201.533203125 3545.4664306640625 -152.1998291015625Q3572.66650390625 -102.866455078125 3616.333251953125 -72.4664306640625Q3660.0 -42.06640625 3721.666748046875 -42.06640625Z M4216.3333740234375 0.0V-50.5997314453125Q4246.33349609375 -52.06640625 4261.133483886719 -61.96649169921875Q4275.9334716796875 -71.8665771484375 4281.166748046875 -94.29998779296875Q4286.4000244140625 -116.7333984375 4286.4000244140625 -154.4000244140625V-560.26708984375Q4286.4000244140625 -584.0003662109375 4287.666687011719 -605.9669799804688Q4288.933349609375 -627.93359375 4289.933349609375 -641.866943359375Q4273.0 -640.866943359375 4251.800048828125 -640.1336059570312Q4230.60009765625 -639.4002685546875 4216.3333740234375 -638.4002685546875V-700.0Q4280.333251953125 -701.0 4345.033142089844 -701.4666748046875Q4409.7330322265625 -701.933349609375 4474.666259765625 -701.5333251953125Q4566.8663330078125 -701.5999755859375 4629.299621582031 -680.3666381835938Q4691.73291015625 -659.13330078125 4723.4661865234375 -615.6333618164062Q4755.199462890625 -572.1334228515625 4754.1328125 -503.3336181640625Q4754.066162109375 -462.733642578125 4736.432861328125 -423.56695556640625Q4718.799560546875 -384.4002685546875 4679.3662109375 -354.000244140625Q4639.932861328125 -323.6002197265625 4572.9993896484375 -307.06689453125Q4592.466064453125 -296.266845703125 4609.332702636719 -276.400146484375Q4626.1993408203125 -256.533447265625 4641.9993896484375 -232.3333740234375L4698.799560546875 -145.06640625Q4718.4661865234375 -114.3331298828125 4734.99951171875 -93.63311767578125Q4751.5328369140625 -72.93310546875 4770.3995361328125 -62.0330810546875Q4789.2662353515625 -51.133056640625 4815.46630859375 -50.5997314453125V0.0H4668.6666259765625Q4645.533203125 -19.0667724609375 4627.099853515625 -44.26678466796875Q4608.66650390625 -69.466796875 4588.1998291015625 -101.9334716796875L4517.466552734375 -215.86669921875Q4504.466552734375 -236.3333740234375 4491.6998291015625 -256.63348388671875Q4478.93310546875 -276.93359375 4463.7996826171875 -291.1336669921875Q4447.7996826171875 -290.6669921875 4433.766296386719 -290.6669921875Q4419.73291015625 -290.6669921875 4404.3328857421875 -291.1336669921875V-143.532958984375Q4404.3328857421875 -115.9996337890625 4403.566223144531 -93.56634521484375Q4402.799560546875 -71.133056640625 4400.799560546875 -58.133056640625Q4412.2662353515625 -59.133056640625 4426.932861328125 -59.633056640625Q4441.5994873046875 -60.133056640625 4455.999450683594 -60.86639404296875Q4470.3994140625 -61.5997314453125 4479.7327880859375 -61.5997314453125V0.0ZM4458.8663330078125 -346.800048828125Q4514.399658203125 -347.7333984375 4551.899719238281 -364.00006103515625Q4589.3997802734375 -380.2667236328125 4608.866516113281 -414.46673583984375Q4628.333251953125 -448.666748046875 4628.333251953125 -502.466796875Q4628.333251953125 -545.800048828125 4615.433288574219 -573.7667236328125Q4602.5333251953125 -601.7333984375 4580.266662597656 -617.8001098632812Q4558.0 -633.8668212890625 4529.8665771484375 -640.1668701171875Q4501.733154296875 -646.4669189453125 4472.2662353515625 -646.4669189453125Q4443.7994384765625 -646.4669189453125 4429.032775878906 -636.8001708984375Q4414.26611328125 -627.1334228515625 4409.299499511719 -605.7000122070312Q4404.3328857421875 -584.2666015625 4404.3328857421875 -548.7999267578125V-349.86669921875Q4417.666259765625 -348.86669921875 4430.832946777344 -347.60003662109375Q4443.9996337890625 -346.3333740234375 4458.8663330078125 -346.800048828125Z M5279.0667724609375 -249.400146484375Q5279.0667724609375 -292.33349609375 5266.533447265625 -311.33349609375Q5254.0001220703125 -330.33349609375 5229.866760253906 -334.60015869140625Q5205.7333984375 -338.8668212890625 5171.2666015625 -337.400146484375L5123.3328857421875 -335.466796875V-141.1329345703125Q5123.3328857421875 -114.1329345703125 5122.566223144531 -92.46630859375Q5121.799560546875 -70.7996826171875 5119.799560546875 -57.7996826171875L5280.4000244140625 -59.19970703125Q5316.9334716796875 -59.6663818359375 5346.8001708984375 -73.1663818359375Q5376.6668701171875 -86.6663818359375 5394.6668701171875 -119.33306884765625Q5412.6668701171875 -151.999755859375 5412.6668701171875 -208.3331298828125H5463.199951171875L5457.7332763671875 0.0H4935.3333740234375V-50.5997314453125Q4965.33349609375 -52.06640625 4980.133483886719 -61.96649169921875Q4994.9334716796875 -71.8665771484375 5000.166748046875 -94.29998779296875Q5005.4000244140625 -116.7333984375 5005.4000244140625 -154.4000244140625V-560.26708984375Q5005.4000244140625 -584.0003662109375 5006.666687011719 -605.9669799804688Q5007.933349609375 -627.93359375 5008.933349609375 -641.866943359375Q4992.0 -640.866943359375 4970.800048828125 -640.1336059570312Q4949.60009765625 -639.4002685546875 4935.3333740234375 -638.4002685546875V-700.0H5426.466552734375L5431.9998779296875 -514.8668212890625H5381.400146484375Q5381.400146484375 -571.7335205078125 5362.8668212890625 -600.9002075195312Q5344.33349609375 -630.06689453125 5315.166809082031 -640.0335693359375Q5286.0001220703125 -650.000244140625 5253.86669921875 -649.000244140625L5194.532958984375 -647.5335693359375Q5166.066162109375 -647.06689453125 5150.5994873046875 -638.0668334960938Q5135.1328125 -629.0667724609375 5129.232849121094 -607.300048828125Q5123.3328857421875 -585.5333251953125 5123.3328857421875 -545.5999755859375V-390.9332275390625L5273.466796875 -390.466552734375L5268.0667724609375 -476.9998779296875H5329.66650390625V-249.400146484375Z M5565.333251953125 0.0V-52.19970703125Q5594.2666015625 -52.19970703125 5610.7999267578125 -68.19970703125Q5627.333251953125 -84.19970703125 5638.3665771484375 -111.133056640625Q5649.39990234375 -138.06640625 5661.7999267578125 -171.3331298828125L5861.933349609375 -718.4666748046875H5910.46630859375L6128.133056640625 -162.2664794921875Q6135.06640625 -144.4664306640625 6145.06640625 -112.79974365234375Q6155.06640625 -81.133056640625 6155.19970703125 -58.133056640625Q6172.19970703125 -59.6663818359375 6188.399719238281 -60.39971923828125Q6204.5997314453125 -61.133056640625 6217.866455078125 -61.5997314453125V0.0H5967.533447265625V-50.5997314453125Q6000.2001953125 -51.06640625 6011.400207519531 -64.66644287109375Q6022.6002197265625 -78.2664794921875 6020.6668701171875 -99.1998291015625Q6018.7335205078125 -120.1331787109375 6010.133544921875 -141.866455078125L5983.1334228515625 -215.0667724609375L5746.06640625 -210.1334228515625L5721.1995849609375 -135.1329345703125Q5715.2662353515625 -116.99951171875 5707.6329345703125 -96.86627197265625Q5699.9996337890625 -76.7330322265625 5692.46630859375 -59.7330322265625Q5710.3330078125 -61.266357421875 5731.4329833984375 -61.99969482421875Q5752.532958984375 -62.7330322265625 5766.7330322265625 -63.19970703125V0.0ZM5766.399658203125 -270.1998291015625H5963.266845703125L5905.5999755859375 -426.0003662109375Q5893.5333251953125 -459.6669921875 5882.833312988281 -493.366943359375Q5872.13330078125 -527.06689453125 5864.333251953125 -556.4669189453125H5862.8665771484375Q5856.0665283203125 -534.33349609375 5846.899841308594 -503.133544921875Q5837.733154296875 -471.93359375 5823.533203125 -433.333740234375Z" fill="#5a5a5a"/></g><g transform="translate(145.07,24) scale(0.02200)"><path d="M50 -66Q73 -67 88.5 -72.0Q104 -77 112.5 -95.0Q121 -113 121 -153V-536Q121 -563 122.5 -588.0Q124 -613 125 -626Q109 -625 85.0 -624.5Q61 -624 50 -623V-700Q121 -701 192.0 -701.0Q263 -701 334 -702Q422 -703 487.5 -679.0Q553 -655 588.5 -605.0Q624 -555 622 -475Q621 -435 603.0 -396.5Q585 -358 550.0 -326.5Q515 -295 462.0 -275.0Q409 -255 338 -253Q316 -252 299.5 -252.0Q283 -252 266 -253V-165Q266 -137 265.0 -112.0Q264 -87 262 -74Q273 -75 290.0 -75.5Q307 -76 323.5 -76.5Q340 -77 347 -77V0H50ZM266 -328Q277 -327 288.0 -326.0Q299 -325 311 -325Q366 -325 400.5 -343.5Q435 -362 451.0 -397.5Q467 -433 467 -484Q467 -534 453.5 -564.0Q440 -594 419.0 -608.5Q398 -623 375.0 -627.5Q352 -632 333 -632Q312 -632 297.0 -627.0Q282 -622 274.0 -605.0Q266 -588 266 -553Z M1002.0 -634Q980.0 -633 964.0 -628.0Q948.0 -623 939.5 -605.5Q931.0 -588 931.0 -547V-272Q931.0 -209 944.5 -168.5Q958.0 -128 980.5 -104.5Q1003.0 -81 1031.5 -71.0Q1060.0 -61 1090.0 -60Q1145.0 -58 1184.0 -81.0Q1223.0 -104 1244.0 -152.0Q1265.0 -200 1265.0 -274V-536Q1265.0 -563 1266.0 -588.0Q1267.0 -613 1269.0 -626Q1253.0 -625 1228.5 -624.5Q1204.0 -624 1193.0 -623V-700H1425.0V-634Q1403.0 -633 1387.0 -628.0Q1371.0 -623 1362.5 -605.5Q1354.0 -588 1354.0 -547V-297Q1354.0 -211 1333.0 -151.0Q1312.0 -91 1274.0 -54.0Q1236.0 -17 1185.0 -0.5Q1134.0 16 1074.0 16Q990.0 16 934.0 -8.0Q878.0 -32 845.5 -75.0Q813.0 -118 799.5 -174.0Q786.0 -230 786.0 -294V-536Q786.0 -563 787.5 -588.0Q789.0 -613 790.0 -626Q774.0 -625 750.0 -624.5Q726.0 -624 715.0 -623V-700H1002.0Z M1549.0 0V-66Q1572.0 -67 1587.5 -72.0Q1603.0 -77 1611.5 -95.0Q1620.0 -113 1620.0 -153V-536Q1620.0 -563 1621.5 -588.0Q1623.0 -613 1624.0 -626Q1608.0 -625 1584.0 -624.5Q1560.0 -624 1549.0 -623V-700H1836.0V-634Q1814.0 -633 1798.0 -628.0Q1782.0 -623 1773.5 -605.5Q1765.0 -588 1765.0 -547V-164Q1765.0 -137 1764.0 -113.0Q1763.0 -89 1761.0 -76H1895.0Q1954.0 -76 1987.5 -117.0Q2021.0 -158 2021.0 -240H2088.0L2082.0 0Z M2607.0 -476Q2598.0 -532 2575.0 -569.5Q2552.0 -607 2516.5 -626.0Q2481.0 -645 2434.0 -644Q2391.0 -644 2358.5 -620.0Q2326.0 -596 2326.0 -558Q2326.0 -527 2343.5 -504.0Q2361.0 -481 2397.0 -461.0Q2433.0 -441 2488.0 -418Q2526.0 -403 2566.0 -383.0Q2606.0 -363 2640.0 -335.5Q2674.0 -308 2695.0 -271.5Q2716.0 -235 2716.0 -186Q2716.0 -127 2684.0 -81.0Q2652.0 -35 2594.5 -9.5Q2537.0 16 2460.0 16Q2420.0 16 2373.5 3.5Q2327.0 -9 2286.0 -33L2289.0 9H2212.0V-225H2278.0Q2292.0 -141 2342.5 -98.5Q2393.0 -56 2463.0 -56Q2499.0 -56 2526.0 -69.0Q2553.0 -82 2568.0 -103.5Q2583.0 -125 2583.0 -150Q2583.0 -185 2558.5 -208.0Q2534.0 -231 2497.5 -247.0Q2461.0 -263 2423.0 -278Q2375.0 -298 2333.5 -320.5Q2292.0 -343 2261.0 -372.0Q2230.0 -401 2213.0 -438.5Q2196.0 -476 2196.0 -525Q2196.0 -556 2208.0 -589.5Q2220.0 -623 2247.0 -651.5Q2274.0 -680 2319.0 -698.0Q2364.0 -716 2430.0 -716Q2470.0 -716 2517.5 -704.0Q2565.0 -692 2599.0 -668L2595.0 -709H2673.0V-476Z M3191.0 -241Q3191.0 -283 3178.0 -302.0Q3165.0 -321 3142.5 -325.5Q3120.0 -330 3093.0 -329L3067.0 -328V-164Q3067.0 -137 3066.0 -113.0Q3065.0 -89 3063.0 -76H3197.0Q3227.0 -76 3255.0 -89.5Q3283.0 -103 3301.0 -134.5Q3319.0 -166 3319.0 -220H3384.0L3379.0 0H2851.0V-66Q2874.0 -67 2889.5 -72.0Q2905.0 -77 2913.5 -95.0Q2922.0 -113 2922.0 -153V-536Q2922.0 -563 2923.5 -588.0Q2925.0 -613 2926.0 -626Q2910.0 -625 2886.0 -624.5Q2862.0 -624 2851.0 -623V-700H3351.0L3357.0 -506H3291.0Q3291.0 -561 3272.0 -589.0Q3253.0 -617 3225.0 -626.5Q3197.0 -636 3170.0 -635L3134.0 -634Q3113.0 -634 3098.0 -628.5Q3083.0 -623 3075.0 -604.5Q3067.0 -586 3067.0 -547V-397H3184.0L3180.0 -484H3257.0V-241Z" fill="#141414"/></g><path d="M145.1 30 h22.9 l4.6 -3.5 6.1 6 4.6 -2.5 H221.5" fill="none" stroke="#0057b8" stroke-width="1.5" stroke-linecap="round" stroke-linejoin="round"/></svg>